<svg width="59" height="69" viewBox="0 0 59 69" fill="none" xmlns="http://www.w3.org/2000/svg">
<g id="icon">
<rect id="Rectangle 424" x="0.5" y="9.5" width="49" height="59" stroke="#AD937B"/>
<path id="Rectangle 425" d="M4 9.5V5H54V65H49.5" stroke="#AD937B"/>
<path id="Rectangle 426" d="M8 5.5V1H58V61H53.5" stroke="#AD937B"/>
<path id="Vector 116" d="M7 24H43" stroke="#AD937B"/>
<path id="Vector 117" d="M7 30H43" stroke="#AD937B"/>
<path id="Star 2" d="M18.6406 37.5312L18.7822 37.6133L18.9453 37.5957L20.832 37.3916L21.9434 38.9307L22.04 39.0635L22.1953 39.1143L24.002 39.6943L24.3916 41.5527L24.4248 41.7129L24.5469 41.8223L25.96 43.0879L25.5615 44.9434L25.5273 45.1035L25.5938 45.2529L26.3691 46.9834L25.251 48.5176L25.1543 48.6494V48.8135L25.1592 50.71L23.5137 51.6553L23.3721 51.7373L23.3057 51.8867L22.5381 53.6221L20.6504 53.8154L20.4873 53.833L20.3662 53.9424L18.958 55.2158L17.1553 54.625L17 54.5742L16.8447 54.625L15.041 55.2158L13.6338 53.9424L13.5127 53.833L13.3496 53.8154L11.4609 53.6221L10.6943 51.8867L10.6279 51.7373L10.4863 51.6553L8.83984 50.71L8.8457 48.8135V48.6494L8.74902 48.5176L7.62988 46.9834L8.40625 45.2529L8.47266 45.1035L8.43848 44.9434L8.03906 43.0879L9.45312 41.8223L9.5752 41.7129L9.6084 41.5527L9.99707 39.6943L11.8047 39.1143L11.96 39.0635L12.0566 38.9307L13.167 37.3916L15.0547 37.5957L15.2178 37.6133L15.3594 37.5312L17 36.5781L18.6406 37.5312Z" stroke="#AD937B"/>
<circle id="Ellipse 59" cx="17" cy="46" r="6.5" stroke="#AD937B"/>
<path id="Vector 362" d="M13 54V62L17 60.7368L21 62V54" stroke="#AD937B"/>
</g>
</svg>
