<svg width="78" height="69" viewBox="0 0 78 69" fill="none" xmlns="http://www.w3.org/2000/svg">
<g id="icon">
<rect id="Rectangle 424" x="0.5" y="9.5" width="69" height="59" stroke="#AD937B"/>
<path id="Rectangle 425" d="M5 9.5V5H73.5V65H69.5" stroke="#AD937B"/>
<path id="Rectangle 426" d="M9 5.5V1H77.5V61H73.5" stroke="#AD937B"/>
<path id="Vector 116" d="M7 46H63" stroke="#AD937B"/>
<path id="Vector 117" d="M7 52H63" stroke="#AD937B"/>
<path id="Vector 118" d="M22 58L48 58" stroke="#AD937B"/>
<g id="Group 208">
<path id="Star 2" d="M43.4688 28.6406L43.3867 28.7822L43.4043 28.9453L43.6084 30.832L42.0693 31.9434L41.9365 32.04L41.8857 32.1953L41.3057 34.002L39.4473 34.3916L39.2871 34.4248L39.1777 34.5469L37.9121 35.96L36.0566 35.5615L35.8965 35.5273L35.7471 35.5938L34.0166 36.3691L32.4824 35.251L32.3506 35.1543H32.1865L30.29 35.1592L29.3447 33.5137L29.2627 33.3721L29.1133 33.3057L27.3779 32.5381L27.1846 30.6504L27.167 30.4873L27.0576 30.3662L25.7842 28.958L26.375 27.1553L26.4258 27L26.375 26.8447L25.7842 25.041L27.0576 23.6338L27.167 23.5127L27.1846 23.3496L27.3779 21.4609L29.1133 20.6943L29.2627 20.6279L29.3447 20.4863L30.29 18.8398L32.1865 18.8457H32.3506L32.4824 18.749L34.0166 17.6299L35.7471 18.4062L35.8965 18.4727L36.0566 18.4385L37.9121 18.0391L39.1777 19.4531L39.2871 19.5752L39.4473 19.6084L41.3057 19.9971L41.8857 21.8047L41.9365 21.96L42.0693 22.0566L43.6084 23.167L43.4043 25.0547L43.3867 25.2178L43.4688 25.3594L44.4219 27L43.4688 28.6406Z" stroke="#AD937B"/>
<circle id="Ellipse 59" cx="35" cy="27" r="6.5" transform="rotate(90 35 27)" stroke="#AD937B"/>
<path id="Vector 362" d="M27 23H19L20.2632 27L19 31H27" stroke="#AD937B"/>
<path id="Vector 363" d="M43 23H51L49.7368 27L51 31H43" stroke="#AD937B"/>
</g>
</g>
</svg>
