<svg width="92" height="68" viewBox="0 0 92 68" fill="none" xmlns="http://www.w3.org/2000/svg">
<g id="icon">
<g id="Group 77">
<g id="Union">
<mask id="path-1-inside-1_297_6740" fill="white">
<path d="M50.2676 13.708C52.826 14.2434 55.2105 15.2512 57.3271 16.6348L60.6592 13.3047L66.6953 19.3408L63.3633 22.6719C64.7471 24.7886 65.7555 27.1729 66.291 29.7314H71V38.2686H66.291C65.7555 40.8268 64.7468 43.2106 63.3633 45.3271L66.6953 48.6592L60.6592 54.6953L57.3271 51.3643C55.2105 52.7479 52.826 53.7556 50.2676 54.291V59H41.7314V54.291C39.1727 53.7555 36.7878 52.7481 34.6709 51.3643L31.3398 54.6963L25.3037 48.6592L28.6348 45.3271C27.2514 43.2108 26.2444 40.8266 25.709 38.2686H21V29.7314H25.709C26.2445 27.1731 27.2512 24.7885 28.6348 22.6719L25.3037 19.3408L31.3398 13.3037L34.6709 16.6348C36.7877 15.251 39.1728 14.2435 41.7314 13.708V9H50.2676V13.708Z"/>
</mask>
<path d="M50.2676 13.708H49.2676V14.5204L50.0627 14.6868L50.2676 13.708ZM57.3271 16.6348L56.78 17.4718L57.4597 17.9161L58.034 17.3421L57.3271 16.6348ZM60.6592 13.3047L61.3663 12.5976L60.6594 11.8907L59.9523 12.5974L60.6592 13.3047ZM66.6953 19.3408L67.4023 20.048L68.1096 19.3409L67.4024 18.6337L66.6953 19.3408ZM63.3633 22.6719L62.6563 21.9647L62.0817 22.539L62.5263 23.2191L63.3633 22.6719ZM66.291 29.7314L65.3122 29.9363L65.4786 30.7314H66.291V29.7314ZM71 29.7314H72V28.7314H71V29.7314ZM71 38.2686V39.2686H72V38.2686H71ZM66.291 38.2686V37.2686H65.4787L65.3122 38.0637L66.291 38.2686ZM63.3633 45.3271L62.5262 44.78L62.0818 45.4599L62.6562 46.0343L63.3633 45.3271ZM66.6953 48.6592L67.4024 49.3663L68.1095 48.6592L67.4024 47.9521L66.6953 48.6592ZM60.6592 54.6953L59.9522 55.4025L60.6593 56.1094L61.3663 55.4024L60.6592 54.6953ZM57.3271 51.3643L58.0342 50.657L57.4598 50.0829L56.78 50.5272L57.3271 51.3643ZM50.2676 54.291L50.0627 53.3122L49.2676 53.4786V54.291H50.2676ZM50.2676 59V60H51.2676V59H50.2676ZM41.7314 59H40.7314V60H41.7314V59ZM41.7314 54.291H42.7314V53.4786L41.9363 53.3122L41.7314 54.291ZM34.6709 51.3643L35.2181 50.5272L34.5381 50.0827L33.9637 50.6573L34.6709 51.3643ZM31.3398 54.6963L30.6327 55.4033L31.3399 56.1107L32.0471 55.4033L31.3398 54.6963ZM25.3037 48.6592L24.5965 47.9522L23.8897 48.6592L24.5965 49.3662L25.3037 48.6592ZM28.6348 45.3271L29.342 46.0342L29.9162 45.4598L29.4718 44.78L28.6348 45.3271ZM25.709 38.2686L26.6878 38.0637L26.5213 37.2686H25.709V38.2686ZM21 38.2686H20V39.2686H21V38.2686ZM21 29.7314V28.7314H20V29.7314H21ZM25.709 29.7314V30.7314H26.5213L26.6878 29.9363L25.709 29.7314ZM28.6348 22.6719L29.4718 23.219L29.9162 22.5391L29.3419 21.9648L28.6348 22.6719ZM25.3037 19.3408L24.5965 18.6338L23.8896 19.3409L24.5966 20.0479L25.3037 19.3408ZM31.3398 13.3037L32.047 12.5966L31.3398 11.8894L30.6327 12.5967L31.3398 13.3037ZM34.6709 16.6348L33.9638 17.3419L34.5382 17.9162L35.2181 17.4718L34.6709 16.6348ZM41.7314 13.708L41.9363 14.6868L42.7314 14.5204V13.708H41.7314ZM41.7314 9V8H40.7314V9H41.7314ZM50.2676 9H51.2676V8H50.2676V9ZM50.2676 13.708L50.0627 14.6868C52.4964 15.1961 54.7652 16.1548 56.78 17.4718L57.3271 16.6348L57.8743 15.7977C55.6558 14.3476 53.1556 13.2907 50.4724 12.7292L50.2676 13.708ZM57.3271 16.6348L58.034 17.3421L61.3661 14.012L60.6592 13.3047L59.9523 12.5974L56.6203 15.9275L57.3271 16.6348ZM60.6592 13.3047L59.9521 14.0118L65.9882 20.0479L66.6953 19.3408L67.4024 18.6337L61.3663 12.5976L60.6592 13.3047ZM66.6953 19.3408L65.9883 18.6336L62.6563 21.9647L63.3633 22.6719L64.0703 23.3791L67.4023 20.048L66.6953 19.3408ZM63.3633 22.6719L62.5263 23.2191C63.8436 25.2341 64.8029 27.5026 65.3122 29.9363L66.291 29.7314L67.2698 29.5266C66.7082 26.8431 65.6506 24.3432 64.2003 22.1247L63.3633 22.6719ZM66.291 29.7314V30.7314H71V29.7314V28.7314H66.291V29.7314ZM71 29.7314H70V38.2686H71H72V29.7314H71ZM71 38.2686V37.2686H66.291V38.2686V39.2686H71V38.2686ZM66.291 38.2686L65.3122 38.0637C64.8029 40.497 63.8434 42.765 62.5262 44.78L63.3633 45.3271L64.2003 45.8743C65.6503 43.6561 66.7082 41.1567 67.2698 38.4734L66.291 38.2686ZM63.3633 45.3271L62.6562 46.0343L65.9882 49.3663L66.6953 48.6592L67.4024 47.9521L64.0704 44.62L63.3633 45.3271ZM66.6953 48.6592L65.9882 47.9521L59.9521 53.9882L60.6592 54.6953L61.3663 55.4024L67.4024 49.3663L66.6953 48.6592ZM60.6592 54.6953L61.3662 53.9881L58.0342 50.657L57.3271 51.3643L56.6201 52.0715L59.9522 55.4025L60.6592 54.6953ZM57.3271 51.3643L56.78 50.5272C54.7652 51.8443 52.4965 52.8029 50.0627 53.3122L50.2676 54.291L50.4724 55.2698C53.1556 54.7083 55.6557 53.6515 57.8743 52.2013L57.3271 51.3643ZM50.2676 54.291H49.2676V59H50.2676H51.2676V54.291H50.2676ZM50.2676 59V58H41.7314V59V60H50.2676V59ZM41.7314 59H42.7314V54.291H41.7314H40.7314V59H41.7314ZM41.7314 54.291L41.9363 53.3122C39.5022 52.8028 37.2329 51.8444 35.2181 50.5272L34.6709 51.3643L34.1237 52.2013C36.3426 53.6518 38.8433 54.7082 41.5266 55.2698L41.7314 54.291ZM34.6709 51.3643L33.9637 50.6573L30.6326 53.9893L31.3398 54.6963L32.0471 55.4033L35.3781 52.0713L34.6709 51.3643ZM31.3398 54.6963L32.047 53.9892L26.0109 47.9521L25.3037 48.6592L24.5965 49.3662L30.6327 55.4033L31.3398 54.6963ZM25.3037 48.6592L26.0109 49.3662L29.342 46.0342L28.6348 45.3271L27.9276 44.6201L24.5965 47.9522L25.3037 48.6592ZM28.6348 45.3271L29.4718 44.78C28.1551 42.7656 27.1971 40.4971 26.6878 38.0637L25.709 38.2686L24.7302 38.4734C25.2917 41.156 26.3477 43.6559 27.7977 45.8743L28.6348 45.3271ZM25.709 38.2686V37.2686H21V38.2686V39.2686H25.709V38.2686ZM21 38.2686H22V29.7314H21H20V38.2686H21ZM21 29.7314V30.7314H25.709V29.7314V28.7314H21V29.7314ZM25.709 29.7314L26.6878 29.9363C27.1972 27.5025 28.155 25.2335 29.4718 23.219L28.6348 22.6719L27.7977 22.1247C26.3474 24.3434 25.2917 26.8438 24.7302 29.5266L25.709 29.7314ZM28.6348 22.6719L29.3419 21.9648L26.0108 18.6337L25.3037 19.3408L24.5966 20.0479L27.9277 23.379L28.6348 22.6719ZM25.3037 19.3408L26.0109 20.0479L32.047 14.0108L31.3398 13.3037L30.6327 12.5967L24.5965 18.6338L25.3037 19.3408ZM31.3398 13.3037L30.6327 14.0108L33.9638 17.3419L34.6709 16.6348L35.378 15.9277L32.047 12.5966L31.3398 13.3037ZM34.6709 16.6348L35.2181 17.4718C37.2329 16.1547 39.5022 15.1962 41.9363 14.6868L41.7314 13.708L41.5266 12.7292C38.8433 13.2908 36.3425 14.3473 34.1237 15.7977L34.6709 16.6348ZM41.7314 13.708H42.7314V9H41.7314H40.7314V13.708H41.7314ZM41.7314 9V10H50.2676V9V8H41.7314V9ZM50.2676 9H49.2676V13.708H50.2676H51.2676V9H50.2676Z" fill="#AD937B" mask="url(#path-1-inside-1_297_6740)"/>
</g>
<circle id="Ellipse 54" cx="46" cy="34" r="13.6026" stroke="#AD937B"/>
</g>
<g id="Group 202">
<circle id="Ellipse 55" cx="5" cy="5" r="4.5" stroke="#AD937B"/>
<circle id="Ellipse 56" cx="5" cy="34" r="4.5" stroke="#AD937B"/>
<circle id="Ellipse 57" cx="5" cy="63" r="4.5" stroke="#AD937B"/>
<path id="Vector 350" d="M9 34H21" stroke="#AD937B"/>
<path id="Vector 352" d="M10 63H15V5H10" stroke="#AD937B"/>
</g>
<g id="Group 203">
<circle id="Ellipse 55_2" cx="5" cy="5" r="4.5" transform="matrix(-1 0 0 1 91.5 0)" stroke="#AD937B"/>
<circle id="Ellipse 56_2" cx="5" cy="5" r="4.5" transform="matrix(-1 0 0 1 91.5 29)" stroke="#AD937B"/>
<circle id="Ellipse 57_2" cx="5" cy="5" r="4.5" transform="matrix(-1 0 0 1 91.5 58)" stroke="#AD937B"/>
<path id="Vector 350_2" d="M82 34H71" stroke="#AD937B"/>
<path id="Vector 352_2" d="M81.5 63H76.5V5H81.5" stroke="#AD937B"/>
</g>
</g>
</svg>
