<svg width="60" height="60" viewBox="0 0 60 60" fill="none" xmlns="http://www.w3.org/2000/svg">
<g id="icon_zoom">
<path id="Vector" d="M52.5 52.5L41.6425 41.6425M41.6425 41.6425C43.4997 39.7853 44.973 37.5805 45.9781 35.1539C46.9832 32.7273 47.5005 30.1265 47.5005 27.5C47.5005 24.8735 46.9832 22.2727 45.9781 19.8462C44.973 17.4196 43.4997 15.2147 41.6425 13.3575C39.7853 11.5003 37.5805 10.0271 35.1539 9.02196C32.7273 8.01684 30.1265 7.49951 27.5 7.49951C24.8735 7.49951 22.2727 8.01684 19.8462 9.02196C17.4196 10.0271 15.2147 11.5003 13.3575 13.3575C9.6067 17.1084 7.49951 22.1956 7.49951 27.5C7.49951 32.8045 9.6067 37.8917 13.3575 41.6425C17.1084 45.3933 22.1956 47.5005 27.5 47.5005C32.8045 47.5005 37.8917 45.3933 41.6425 41.6425ZM27.5 20V35M20 27.5H35" stroke="#29292E" stroke-linecap="round" stroke-linejoin="round"/>
</g>
</svg>
