<svg width="81" height="70" viewBox="0 0 81 70" fill="none" xmlns="http://www.w3.org/2000/svg">
<g id="icon">
<path id="Rectangle 424" d="M51 49V69H1V9H51V17.5" stroke="#AD937B"/>
<path id="Rectangle 425" d="M5 9.5V5H55V17.5M50.5 65H55V48.5" stroke="#AD937B"/>
<path id="Rectangle 426" d="M9 5.5V1H59V17.5M54.5 61H59V48.5" stroke="#AD937B"/>
<path id="Vector 116" d="M8 24H36" stroke="#AD937B"/>
<path id="Vector 117" d="M8 30H36" stroke="#AD937B"/>
<path id="Vector 118" d="M8 36H36" stroke="#AD937B"/>
<path id="Vector 119" d="M8 42H36" stroke="#AD937B"/>
<g id="Union">
<mask id="path-8-inside-1_297_7257" fill="white">
<path d="M81 49H49.6191L45 57L40.3809 49H35V17H81V49Z"/>
</mask>
<path d="M81 49V50H82V49H81ZM49.6191 49V48H49.0418L48.7531 48.5L49.6191 49ZM45 57L44.134 57.5L45 58.9999L45.866 57.5L45 57ZM40.3809 49L41.2469 48.5L40.9582 48H40.3809V49ZM35 49H34V50H35V49ZM35 17V16H34V17H35ZM81 17H82V16H81V17ZM81 49V48H49.6191V49V50H81V49ZM49.6191 49L48.7531 48.5L44.134 56.5L45 57L45.866 57.5L50.4852 49.5L49.6191 49ZM45 57L45.866 56.5L41.2469 48.5L40.3809 49L39.5148 49.5L44.134 57.5L45 57ZM40.3809 49V48H35V49V50H40.3809V49ZM35 49H36V17H35H34V49H35ZM35 17V18H81V17V16H35V17ZM81 17H80V49H81H82V17H81Z" fill="#AD937B" mask="url(#path-8-inside-1_297_7257)"/>
</g>
<path id="Vector 38" d="M51 34L55.5 38.5L68 26" stroke="#AD937B"/>
</g>
</svg>
